<svg width="260" height="200" viewBox="0 0 260 200" fill="none" xmlns="http://www.w3.org/2000/svg">
<path d="M229 111.5C235.904 111.5 241.5 105.904 241.5 99C241.5 92.0964 235.904 86.5 229 86.5V111.5ZM229 86.5L139 86.5V111.5L229 111.5V86.5Z" fill="white"/>
<circle cx="50" cy="50" r="37.5" transform="matrix(-1 0 0 1 156 49)" stroke="#A0CE4E" strokeWidth="25"/>
<path d="M103.57 189C90.8101 189 79.0992 186.821 68.437 182.464C57.7748 178.106 48.5109 171.905 40.6454 163.86C32.7798 155.648 26.6622 146.011 22.2924 134.95C18.0975 123.888 16 111.737 16 98.4972C16 85.9274 18.2723 74.2793 22.8168 63.5531C27.5361 52.6592 34.0034 43.1061 42.2185 34.8938C50.4336 26.6816 59.9597 20.3129 70.7966 15.7877C81.6336 11.2626 93.3445 9 105.929 9C114.844 9 123.496 10.3408 131.886 13.0223C140.45 15.5363 148.141 19.1397 154.958 23.8324C161.95 28.3575 167.63 33.5531 172 39.419L153.123 58.2737C145.607 50.8994 137.916 45.3687 130.05 41.6816C122.185 37.9944 114.145 36.1508 105.929 36.1508C97.3647 36.1508 89.3244 37.743 81.8084 40.9274C74.4672 43.9441 68 48.2179 62.4067 53.7486C56.9882 59.2793 52.7059 65.8994 49.5597 73.6089C46.4134 81.1508 44.8403 89.4469 44.8403 98.4972C44.8403 108.05 46.3261 116.765 49.2975 124.642C52.4437 132.352 56.8135 138.972 62.4067 144.503C68 150.034 74.642 154.307 82.3328 157.324C90.1983 160.173 98.8504 161.598 108.289 161.598C114.057 161.598 119.738 160.844 125.331 159.335C130.924 157.827 136.168 155.648 141.062 152.799C145.956 149.95 150.413 146.598 154.434 142.743L168.592 164.866C164.571 169.391 159.066 173.497 152.074 177.184C145.257 180.871 137.566 183.804 129.002 185.983C120.612 187.994 112.134 189 103.57 189Z" fill="white"/>
</svg>
